<svg width="89" height="88" viewBox="0 0 89 88" fill="none" xmlns="http://www.w3.org/2000/svg">
<g clip-path="url(#clip0_2625_5823)">
<g clip-path="url(#clip1_2625_5823)">
<rect x="0.5" width="88" height="88" rx="44" fill="#D3D8E6"/>
<path d="M39.057 64.0623C41.9768 63.0689 43.8175 60.8484 47.3086 61.1406C53.4656 61.6665 57.8453 68.0359 63.8119 63.7117C70.9844 58.4526 69.0802 26.898 65.97 19.769C63.3041 13.6918 58.48 19.6521 51.4979 17.6069C43.4367 15.2695 36.4545 21.113 32.2653 27.1902C27.949 33.5595 25.664 41.6235 26.2987 49.0447C26.9334 55.8815 28.2664 67.6852 39.057 64.0623Z" fill="#002D6E"/>
<path d="M38.803 49.7458H52.6404V68.3864H38.803V49.7458Z" fill="#EDEFF3"/>
<path d="M38.8663 57.3423V49.7458H52.7036V60.6731C48.1335 60.5562 42.6747 59.7966 38.8663 57.3423Z" fill="#EDEFF3"/>
<path d="M70.9841 74.3468C67.8739 69.9058 62.9864 68.7371 62.9864 68.7371L51.3072 64.7635H40.1357L25.8541 68.7371C25.8541 68.7371 20.9666 69.9058 17.8563 74.3468H70.9841Z" fill="#EDEFF3"/>
<path fill-rule="evenodd" clip-rule="evenodd" d="M64.0654 97.4283L64.0655 97.4284H77.4585C77.9786 82.2504 73.47 76.4489 71.8244 74.8483C68.1785 70.2341 62.9863 68.7954 62.9863 68.7954L54.1 65.7568C53.2113 69.2045 45.7849 69.2045 45.7849 69.2045C36.4542 69.2045 37.1524 65.8153 37.1524 65.8153L25.9175 68.737C25.9175 68.737 22.8472 69.4948 20.0259 72.017C19.0266 72.737 14.1375 76.6248 12.7153 84.6899C12.6518 84.6314 11.3823 91.8189 11.5093 97.4286H26.6796L26.6796 97.4283H64.0654Z" fill="#6B7A99"/>
<path d="M37.3428 51.2652C37.7872 52.2586 38.4854 53.1935 39.374 54.0116C41.6591 56.0568 44.325 57.693 47.3083 58.8032C50.9263 60.1472 56.3851 60.3225 59.2414 57.5761C61.5899 55.3556 62.8594 51.9664 63.875 49.1031C65.8427 43.4934 65.8427 37.3578 65.3349 31.5728C65.2079 30.2288 65.081 28.9432 64.8271 27.5992C62.6055 14.919 50.7993 14.919 50.7993 14.919C41.913 14.5684 33.7248 18.425 32.3919 27.0733C31.8841 30.4041 32.5823 33.9686 32.7092 37.2409C32.8362 39.6952 33.1535 42.091 34.0422 44.4284C34.8673 46.8242 36.2638 48.9863 37.3428 51.2652Z" fill="#EDEFF3"/>
<path d="M66.2236 39.0525C69.5242 29.5276 66.8583 18.3667 62.8595 14.919C51.5611 4.98517 30.7416 8.78341 24.3942 24.2685C22.4265 29.0602 23.3786 46.8827 24.2672 52.3755C25.4732 59.7382 28.393 64.7636 34.4231 64.7636C34.2327 58.6864 34.7405 52.0249 34.1692 44.6037C33.5979 37.241 34.677 37.0657 41.2783 33.6765C44.5789 31.9819 46.4831 30.2289 48.5778 27.424C51.1168 24.0348 49.2125 22.8077 54.227 22.983C54.2905 22.9245 65.9697 22.5739 66.2236 39.0525Z" fill="#002D6E"/>
<path d="M36.2004 41.5651C36.2004 41.5651 34.9944 37.0657 31.2495 38.9356C31.2495 38.9356 29.5357 39.7537 30.7417 42.8507C30.7417 42.8507 32.5189 47.2917 36.2004 45.6556V41.5651Z" fill="#EDEFF3"/>
</g>
</g>
<defs>
<clipPath id="clip0_2625_5823">
<rect width="88" height="88" fill="white" transform="translate(0.5)"/>
</clipPath>
<clipPath id="clip1_2625_5823">
<rect x="0.5" width="88" height="88" rx="44" fill="white"/>
</clipPath>
</defs>
</svg>
