<svg width="64" height="64" viewBox="0 0 64 64" fill="none" xmlns="http://www.w3.org/2000/svg">
<g clip-path="url(#clip0_2605_2407)">
<rect width="64" height="64" rx="8" fill="#D3D8E6"/>
<path d="M13.9775 16.5971C13.9775 16.5971 15.1011 15.6059 17.2135 17.3729L18.2023 15.9076C18.2023 15.9076 15.8202 14.0975 13.9775 16.5971Z" fill="#6B7A99"/>
<path d="M17.843 12.2876C17.843 12.2876 16.5396 13.8391 18.4273 15.6492L17.1688 16.899C17.1688 16.899 14.2475 13.4512 17.843 12.2876Z" fill="#6B7A99"/>
<path d="M12.4492 54.566C14.7414 51.1613 18.3818 50.2131 18.3818 50.2131L27.056 47.1101H35.3706L44.0447 50.2131C44.0447 50.2131 47.6852 51.1613 49.9773 54.566H12.4492Z" fill="#EDEFF3"/>
<path d="M36.8991 39.3096H25.5283V49.9547H36.8991V39.3096Z" fill="#EDEFF3"/>
<path d="M36.944 44.2658V39.3096H25.5283V41.7661C28.8092 44.352 32.7193 44.6968 36.944 44.2658Z" fill="#EDEFF3"/>
<path d="M45.7973 25.9924C46.1119 23.5358 45.5726 21.2085 45.6176 18.7951C45.6176 17.1574 45.303 14.7439 43.1906 14.5284C40.2693 14.2267 39.3704 19.0537 39.1906 21.1654C38.9659 24.053 39.685 27.156 40.2693 29.9574C40.494 30.9917 40.449 33.0173 41.6625 33.4914C42.6962 33.9224 43.7299 32.9311 44.2692 32.1984C45.5277 30.4314 45.5277 28.0611 45.7973 25.9924Z" fill="#6B7A99"/>
<path d="M43.6403 37.8442C42.4718 42.154 40.4493 43.3607 40.4493 43.3607L37.7078 43.8779C36.1347 43.7055 33.4381 43.059 33.4381 43.059C27.2358 41.0334 25.4381 40.4732 24.4493 38.2321C24.4044 38.1459 19.5504 21.9843 19.5504 21.9843C18.7864 13.6233 27.8651 11.8994 29.2583 11.6839C30.6066 11.3822 39.2808 9.09807 41.7976 17.0711C41.7976 17.0711 45.5729 26.3371 43.6403 37.8442Z" fill="#EDEFF3"/>
<path d="M46.4718 9.01206C46.9662 11.5979 46.5168 15.175 44.4044 16.8127C42.1572 18.6228 40.1797 18.1057 37.4831 18.709C34.6516 19.3124 31.7303 19.571 28.8988 20.0882C26.9213 20.476 24.5842 20.6915 23.6853 22.7171C22.4718 25.3892 22.2471 28.8801 23.0561 31.509C23.7303 33.707 23.955 35.8188 24.6741 38.6201C22.1123 36.5946 20.0898 33.5777 20.0898 33.5777C18.7864 31.4228 18.7864 31.4228 17.3482 27.6302C16.4943 25.4323 15.7752 23.4929 15.6404 21.2087C15.5055 18.2781 16.9887 16.9851 18.6067 14.3131C20.1348 11.7703 22.2921 10.0033 25.1235 9.22755C25.1235 9.22755 39.3707 10.0033 39.101 6.85718C39.101 6.85718 42.5168 7.67603 41.8876 9.87401C41.8876 9.87401 45.4831 9.22755 44.719 6.85718C44.764 6.85718 46.2022 7.50364 46.4718 9.01206Z" fill="#6B7A99"/>
<path d="M23.5955 30.9487C23.5955 30.9487 22.0674 27.7595 19.6404 29.6558C19.6404 29.6558 18.5618 30.4746 19.9101 32.6295C19.9101 32.6295 21.8876 35.7325 24.2247 34.0086L23.5955 30.9487Z" fill="#EDEFF3"/>
<path d="M23.371 23.45C23.371 23.45 23.371 29.1819 24.4946 32.2419L23.326 32.4574C23.326 32.4574 22.6968 28.5355 20.5845 28.4924L23.371 23.45Z" fill="#6B7A99"/>
<path fill-rule="evenodd" clip-rule="evenodd" d="M36.9437 47.7134L44.6705 50.1286C44.8028 50.1526 44.9389 50.1807 45.0788 50.2131C45.0788 50.2131 55.0563 52.2817 55.8653 65.4696C55.8653 65.4696 56.0001 68.6158 56.0001 70.8137L49.0785 70.8137V70.8568H13.0336L13.0348 70.814H8C8 70.814 8.04494 67.9695 8.04494 67.754C8.13483 64.9527 8.31461 62.1082 8.85393 59.35C9.55683 55.7023 11.2868 52.4559 15.0235 51.1543C16.3195 50.4905 17.3032 50.2561 17.3032 50.2561L25.5729 47.7134C26.292 50.4285 31.1909 50.6009 31.1909 50.6009C38.6515 50.6009 36.9437 47.7134 36.9437 47.7134Z" fill="#002D6E"/>
</g>
<rect x="0.5" y="0.5" width="63" height="63" rx="7.5" stroke="#EDEFF3"/>
<defs>
<clipPath id="clip0_2605_2407">
<rect width="64" height="64" rx="8" fill="white"/>
</clipPath>
</defs>
</svg>
