<svg width="160" height="160" viewBox="0 0 160 160" fill="none" xmlns="http://www.w3.org/2000/svg">
<path d="M80 20C68.1331 20 56.5328 23.5189 46.6658 30.1118C36.7989 36.7047 29.1085 46.0754 24.5673 57.039C20.026 68.0026 18.8378 80.0666 21.1529 91.7054C23.468 103.344 29.1825 114.035 37.5736 122.426C45.9648 130.818 56.6558 136.532 68.2946 138.847C79.9335 141.162 91.9975 139.974 102.961 135.433C113.925 130.892 123.295 123.201 129.888 113.334C136.481 103.467 140 91.8669 140 80C140 64.087 133.679 48.8258 122.426 37.5736C111.174 26.3214 95.913 20 80 20V20ZM80 126.667C70.7702 126.667 61.7477 123.93 54.0734 118.802C46.3991 113.674 40.4177 106.386 36.8856 97.8586C33.3536 89.3313 32.4294 79.9482 34.23 70.8958C36.0307 61.8433 40.4753 53.5281 47.0017 47.0017C53.5282 40.4752 61.8434 36.0307 70.8958 34.23C79.9483 32.4294 89.3314 33.3535 97.8586 36.8856C106.386 40.4177 113.674 46.3991 118.802 54.0734C123.93 61.7477 126.667 70.7702 126.667 80C126.667 92.3768 121.75 104.247 112.998 112.998C104.247 121.75 92.3768 126.667 80 126.667V126.667Z" fill="currentColor"/>
<path d="M86.6666 73.3334V53.3333C86.6666 49.6515 83.6818 46.6667 79.9999 46.6667V46.6667C76.318 46.6667 73.3333 49.6515 73.3333 53.3334V86.6667H106.667C110.348 86.6667 113.333 83.6819 113.333 80V80C113.333 76.3181 110.348 73.3334 106.667 73.3334H86.6666Z" fill="currentColor"/>
</svg>
