<svg width="24" style="margin-left: 3px;" height="24" viewBox="0 0 24 12" fill="none" xmlns="http://www.w3.org/2000/svg">
  <path d="M18.0001 0.500107H5.00008V2.50011H18.0001V0.500107Z" fill="currentColor"/>
  <path d="M18.0001 6.50011H5.00008V8.50011H18.0001V6.50011Z" fill="currentColor"/>
  <path d="M18.0001 12.4701H5.00008V14.4701H18.0001V12.4701Z" fill="currentColor"/>
  <path d="M1.50008 9.00011C1.30443 9.00427 1.11013 8.96678 0.93008 8.89011C0.749953 8.80737 0.584463 8.69592 0.44008 8.56011C0.298937 8.42231 0.18718 8.25734 0.111556 8.07516C0.0359328 7.89297 -0.001989 7.69735 8.03485e-05 7.50011C0.00417511 7.30429 0.0448754 7.11096 0.12008 6.93011C0.191634 6.74342 0.300521 6.57328 0.44008 6.43011C0.579426 6.293 0.7465 6.1873 0.93008 6.12011C1.2019 6.00436 1.50199 5.97203 1.79222 6.02723C2.08246 6.08243 2.34973 6.22266 2.56008 6.43011C2.83508 6.71941 2.99201 7.10105 3.00008 7.50011C3.00215 7.69735 2.96423 7.89297 2.8886 8.07516C2.81298 8.25734 2.70122 8.42231 2.56008 8.56011C2.423 8.7022 2.25816 8.81458 2.07581 8.89028C1.89346 8.96597 1.69749 9.00335 1.50008 9.00011Z" fill="currentColor"/>
  <path d="M1.50012 14.9701C1.30367 14.9729 1.10864 14.9363 0.92658 14.8624C0.744516 14.7886 0.579104 14.679 0.440122 14.5401C0.299598 14.3998 0.188343 14.2329 0.112812 14.0492C0.03728 13.8656 -0.00102394 13.6687 0.000122009 13.4701C7.66044e-05 13.2477 0.0495109 13.028 0.144844 12.827C0.240177 12.626 0.379021 12.4487 0.55132 12.308C0.723619 12.1673 0.925058 12.0667 1.14105 12.0134C1.35703 11.9602 1.58216 11.9556 1.80012 12.0001C1.89395 12.0171 1.98487 12.0474 2.07012 12.0901C2.16588 12.1247 2.25666 12.1718 2.34012 12.2301C2.41824 12.284 2.49182 12.3442 2.56012 12.4101C2.83616 12.6947 2.99348 13.0737 3.00012 13.4701C3.00127 13.6687 2.96296 13.8656 2.88743 14.0492C2.8119 14.2329 2.70065 14.3998 2.56012 14.5401C2.42114 14.679 2.25573 14.7886 2.07366 14.8624C1.8916 14.9363 1.69658 14.9729 1.50012 14.9701Z" fill="currentColor"/>
  <path d="M1.50008 3.00011C1.30363 3.00291 1.1086 2.9663 0.926539 2.89244C0.744474 2.81859 0.579063 2.70898 0.44008 2.57011C0.299557 2.42976 0.188301 2.26291 0.11277 2.07923C0.0372383 1.89556 -0.00106567 1.69871 8.02859e-05 1.50011C0.00259194 1.10285 0.160529 0.722365 0.44008 0.440107C0.506271 0.371872 0.58009 0.311475 0.66008 0.260107C0.743546 0.201793 0.834326 0.154722 0.93008 0.120107C1.01686 0.081203 1.10731 0.0510538 1.20008 0.0301068C1.39807 -0.0100283 1.60209 -0.0100283 1.80008 0.0301068C1.89285 0.0510538 1.9833 0.081203 2.07008 0.120107C2.16358 0.152784 2.25133 0.200034 2.33008 0.260107C2.41326 0.311277 2.49042 0.371658 2.56008 0.440107C2.83611 0.724692 2.99344 1.1037 3.00008 1.50011C3.00591 1.69694 2.96477 1.89233 2.88008 2.07011C2.79984 2.25228 2.69189 2.42094 2.56008 2.57011C2.41583 2.7009 2.25005 2.80577 2.07008 2.88011C1.89041 2.95907 1.69633 2.99992 1.50008 3.00011Z" fill="currentColor"/>
</svg>
