<svg width="106" height="106" viewBox="0 0 106 106" fill="none" xmlns="http://www.w3.org/2000/svg">
<circle cx="53" cy="53" r="50" fill="#00B86E" stroke="white" stroke-width="5"/>
<path d="M53 3C41.4322 3 30.2223 7.01096 21.2803 14.3495C12.3383 21.688 6.2175 31.9 3.96074 43.2455C1.70398 54.591 3.45093 66.368 8.90394 76.5698C14.3569 86.7717 23.1786 94.7672 33.8658 99.194C44.553 103.621 56.4446 104.205 67.5142 100.847C78.5839 97.4891 88.1468 90.3968 94.5735 80.7785C101 71.1603 103.893 59.6112 102.759 48.0992C101.625 36.5871 96.535 25.8243 88.3553 17.6447L53 53V3Z" fill="#F0522B" stroke="white" stroke-width="5"/>
<path d="M53 3C43.1109 3 33.4439 5.93245 25.2215 11.4265C16.999 16.9206 10.5904 24.7295 6.80602 33.8658C3.02164 43.0021 2.03147 53.0555 3.96074 62.7545C5.89 72.4536 10.652 81.3627 17.6447 88.3553L53 53V3Z" fill="#6E73F7" stroke="white" stroke-width="5"/>
</svg>
