<svg width="24" style="margin-top: 3px;" height="24" viewBox="0 0 18 24" fill="none" xmlns="http://www.w3.org/2000/svg">
<path d="M16.7963 10C16.8152 9.66302 16.9805 9.3435 17.2727 9.17458L19.1313 8.10005C19.6091 7.82381 19.7728 7.21267 19.497 6.73459L17.4953 3.26494C17.2196 2.78704 16.6089 2.62273 16.1306 2.89775L14.2797 3.962C13.9836 4.13225 13.6191 4.11505 13.3202 3.94983C13.0089 3.77782 12.7963 3.46059 12.7963 3.105V0.999999C12.7963 0.447715 12.3485 0 11.7963 0H7.79625C7.24397 0 6.79625 0.447715 6.79625 1V3.11754C6.79625 3.47192 6.58547 3.78871 6.27523 3.95999C5.97508 4.12569 5.60879 4.14025 5.31291 3.96703L3.50475 2.90846C3.02599 2.62817 2.41057 2.79118 2.13334 3.27172L0.133978 6.73728C-0.141229 7.2143 0.0210541 7.82406 0.496973 8.10118L2.31232 9.15821C2.61195 9.33268 2.79625 9.65327 2.79625 10C2.77745 10.3434 2.60925 10.6689 2.31207 10.8419L0.496973 11.8988C0.0210547 12.1759 -0.141229 12.7857 0.133978 13.2627L2.13334 16.7283C2.41057 17.2088 3.02599 17.3718 3.50475 17.0915L5.31291 16.033C5.60879 15.8597 5.97508 15.8743 6.27523 16.04C6.58547 16.2113 6.79625 16.5281 6.79625 16.8825V19C6.79625 19.5523 7.24397 20 7.79625 20H11.7963C12.3485 20 12.7963 19.5523 12.7963 19V16.8841C12.7963 16.5283 13.0064 16.2094 13.3179 16.0374C13.6176 15.8719 13.9831 15.858 14.2795 16.0294L16.1297 17.099C16.6082 17.3756 17.2203 17.2117 17.4964 16.733L19.497 13.2654C19.7728 12.7873 19.6091 12.1762 19.1313 11.8999L17.2727 10.8254C16.9805 10.6565 16.8152 10.337 16.7963 10ZM16.7276 13.9977C16.4516 14.478 15.8368 14.644 15.3577 14.366L13.7963 13.46C13.6386 13.3724 13.4424 13.4077 13.3151 13.5354C12.8196 14.0325 12.2262 14.4185 11.5748 14.67C11.1331 14.8406 10.7963 15.2392 10.7963 15.7127V17C10.7963 17.5523 10.3485 18 9.79625 18C9.24397 18 8.79625 17.5523 8.79625 17V15.7127C8.79625 15.2392 8.4594 14.8406 8.01772 14.67C7.36632 14.4185 6.77293 14.0325 6.27741 13.5354C6.15012 13.4077 5.95388 13.3724 5.79625 13.46L4.23479 14.366C3.7557 14.644 3.14095 14.478 2.86495 13.9977C2.58996 13.5193 2.75363 12.9068 3.23181 12.6313L4.79625 11.73C4.95786 11.6377 5.02737 11.4425 4.97556 11.2637C4.73635 10.4383 4.73635 9.56169 4.97556 8.73631C5.02737 8.55754 4.95786 8.36235 4.79625 8.27L3.23181 7.36868C2.75363 7.09318 2.58996 6.48075 2.86495 6.00227C3.14095 5.52202 3.7557 5.35597 4.23479 5.63397L5.79625 6.54C5.95388 6.62757 6.15012 6.59235 6.27741 6.46463C6.77293 5.96746 7.36632 5.5815 8.01772 5.32997C8.4594 5.15942 8.79625 4.76079 8.79625 4.28733V3C8.79625 2.44772 9.24397 2 9.79625 2C10.3485 2 10.7963 2.44772 10.7963 3V4.28733C10.7963 4.76079 11.1331 5.15942 11.5748 5.32997C12.2262 5.5815 12.8196 5.96746 13.3151 6.46463C13.4424 6.59235 13.6386 6.62757 13.7963 6.54L15.3577 5.63397C15.8368 5.35597 16.4516 5.52202 16.7276 6.00227C17.0025 6.48075 16.8389 7.09318 16.3607 7.36868L14.7963 8.27C14.6346 8.36235 14.5651 8.55754 14.617 8.73632C14.8562 9.56169 14.8562 10.4383 14.617 11.2637C14.5651 11.4425 14.6346 11.6377 14.7963 11.73L16.3607 12.6313C16.8389 12.9068 17.0025 13.5193 16.7276 13.9977Z" fill="currentColor"/>
<path d="M9.79623 7C9.20289 7 8.62287 7.17595 8.12952 7.50559C7.63617 7.83524 7.25165 8.30377 7.02459 8.85195C6.79753 9.40013 6.73812 10.0033 6.85387 10.5853C6.96963 11.1672 7.25535 11.7018 7.67491 12.1213C8.09447 12.5409 8.62901 12.8266 9.21096 12.9424C9.7929 13.0581 10.3961 12.9987 10.9443 12.7716C11.4925 12.5446 11.961 12.1601 12.2906 11.6667C12.6203 11.1734 12.7962 10.5933 12.7962 10C12.7962 9.20435 12.4802 8.44129 11.9176 7.87868C11.3549 7.31607 10.5919 7 9.79623 7ZM9.79623 11C9.59845 11 9.40511 10.9414 9.24066 10.8315C9.07621 10.7216 8.94804 10.5654 8.87235 10.3827C8.79666 10.2 8.77686 9.99889 8.81544 9.80491C8.85403 9.61093 8.94927 9.43275 9.08912 9.29289C9.22898 9.15304 9.40716 9.0578 9.60114 9.01921C9.79512 8.98063 9.99619 9.00043 10.1789 9.07612C10.3616 9.15181 10.5178 9.27998 10.6277 9.44443C10.7376 9.60888 10.7962 9.80222 10.7962 10C10.7962 10.2652 10.6909 10.5196 10.5033 10.7071C10.3158 10.8946 10.0614 11 9.79623 11Z" fill="currentColor"/>
</svg>
