<svg width="24" style="margin-top: 4px;" height="24" viewBox="0 0 18 24" fill="none" xmlns="http://www.w3.org/2000/svg">
<path d="M13.5 0H4.5C3.30653 0 2.16193 0.474106 1.31802 1.31802C0.474106 2.16193 0 3.30653 0 4.5V6.75C0 7.94347 0.474106 9.08807 1.31802 9.93198C2.16193 10.7759 3.30653 11.25 4.5 11.25H5.5V14L10.125 11.25H13.5C14.6935 11.25 15.8381 10.7759 16.682 9.93198C17.5259 9.08807 18 7.94347 18 6.75V4.5C18 3.30653 17.5259 2.16193 16.682 1.31802C15.8381 0.474106 14.6935 0 13.5 0ZM5.29875 6.42375C5.11456 6.60715 4.87254 6.72111 4.61383 6.74626C4.35512 6.77141 4.09569 6.7062 3.87962 6.56171C3.66355 6.41722 3.50418 6.20237 3.42859 5.95368C3.35301 5.70498 3.36587 5.43778 3.465 5.1975C3.52197 5.06117 3.60188 4.9356 3.70125 4.82625C3.80583 4.72081 3.93026 4.63711 4.06735 4.58C4.20444 4.52288 4.35149 4.49348 4.5 4.49348C4.64851 4.49348 4.79556 4.52288 4.93265 4.58C5.06974 4.63711 5.19417 4.72081 5.29875 4.82625C5.40117 4.93324 5.48146 5.0594 5.535 5.1975C5.62115 5.40237 5.64469 5.62818 5.60264 5.84642C5.5606 6.06465 5.45485 6.26555 5.29875 6.42375ZM9.79875 6.42375C9.6894 6.52312 9.56383 6.60303 9.4275 6.66C9.22306 6.74183 8.99909 6.76187 8.78337 6.71762C8.56765 6.67336 8.36966 6.56677 8.21394 6.41106C8.05823 6.25534 7.95164 6.05735 7.90738 5.84163C7.86313 5.62591 7.88317 5.40194 7.965 5.1975C8.02197 5.06117 8.10188 4.9356 8.20125 4.82625C8.30583 4.72081 8.43026 4.63711 8.56735 4.58C8.70444 4.52288 8.85149 4.49348 9 4.49348C9.14851 4.49348 9.29556 4.52288 9.43265 4.58C9.56974 4.63711 9.69417 4.72081 9.79875 4.82625C9.90117 4.93324 9.98146 5.0594 10.035 5.1975C10.1212 5.40237 10.1447 5.62818 10.1026 5.84642C10.0606 6.06465 9.95485 6.26555 9.79875 6.42375ZM14.2987 6.42375C14.1146 6.60715 13.8725 6.72111 13.6138 6.74626C13.3551 6.77141 13.0957 6.7062 12.8796 6.56171C12.6635 6.41722 12.5042 6.20237 12.4286 5.95368C12.353 5.70498 12.3659 5.43778 12.465 5.1975C12.522 5.06117 12.6019 4.9356 12.7013 4.82625C12.8069 4.72207 12.9334 4.64154 13.0725 4.59C13.2774 4.50385 13.5032 4.48031 13.7214 4.52236C13.9397 4.5644 14.1405 4.67015 14.2987 4.82625C14.4012 4.93324 14.4815 5.0594 14.535 5.1975C14.6212 5.40237 14.6447 5.62818 14.6026 5.84642C14.5606 6.06465 14.4549 6.26555 14.2987 6.42375Z" fill="currentColor"/>
</svg>
