<svg width="84" height="48" viewBox="0 0 84 48" fill="none" xmlns="http://www.w3.org/2000/svg">
<path d="M23.8308 22.0476C23.3807 21.6489 22.8877 21.3327 22.3706 21.0968C22.5735 20.9228 22.7656 20.7314 22.9444 20.5208C24.7678 18.3737 24.5423 15.1226 22.4406 13.2599C21.4857 12.4138 20.3093 12 19.1382 12.0008L12 12V33.8761H25.8565V26.6286C25.8681 24.9342 25.1816 23.2455 23.8308 22.0476ZM22.9172 32.1604H20.3979V24.8683H17.4586V32.1604H14.9392V13.7158H17.8785C19.4438 13.7158 20.7587 14.8096 21.1319 16.2894H18.2984V18.0052H21.1303C20.7578 19.4843 19.4454 20.5772 17.8816 20.5789H17.8754H16.6188V22.2946H18.7183C19.6941 22.2939 20.6747 22.6394 21.4702 23.344C22.4265 24.1916 22.9157 25.3847 22.9164 26.584H22.918L22.9172 32.1604Z" fill="#002D6E"/>
<path d="M38.4797 19.5843C38.8998 19.7238 39.2181 19.94 39.4349 20.233C39.6585 20.5259 39.7702 20.8886 39.7702 21.3211C39.7702 21.9698 39.5229 22.4824 39.0285 22.8591C38.5407 23.2288 37.8463 23.4136 36.9454 23.4136H33.2974V16.0898H36.7523C37.6059 16.0898 38.2664 16.2572 38.7338 16.592C39.2079 16.9198 39.4451 17.3872 39.4451 17.994C39.4451 18.3497 39.3604 18.6636 39.191 18.9356C39.0285 19.2077 38.7913 19.4239 38.4797 19.5843ZM35.2789 19.0193H36.5592C37.1283 19.0193 37.4128 18.7787 37.4128 18.2974C37.4128 17.8162 37.1283 17.5755 36.5592 17.5755H35.2789V19.0193ZM36.8641 21.9279C37.4467 21.9279 37.738 21.6733 37.738 21.1641C37.738 20.6689 37.4467 20.4213 36.8641 20.4213H35.2789V21.9279H36.8641Z" fill="#002D6E"/>
<path d="M43.8971 19.5007C44.622 19.5076 45.1673 19.675 45.5331 20.0029C45.8989 20.3307 46.0818 20.798 46.0818 21.4049C46.0818 22.0395 45.8684 22.5348 45.4416 22.8905C45.0217 23.2463 44.4255 23.4206 43.6532 23.4137H40.7471V17.743H42.6676V19.5007H43.8971ZM46.5492 17.743H48.4697V23.4137H46.5492V17.743ZM43.4602 22.0535C43.9479 22.0535 44.1918 21.8269 44.1918 21.3735C44.1918 21.1502 44.1308 20.9864 44.0089 20.8817C43.8869 20.7771 43.704 20.7213 43.4602 20.7143H42.6676V22.0431L43.4602 22.0535Z" fill="#002D6E"/>
<path d="M58.506 17.743V23.4136H49.7773V17.743H51.6978V21.8233H53.1916V17.743H55.1121V21.8233H56.5957V17.743H58.506Z" fill="#002D6E"/>
<path d="M62.3908 21.3944H61.7404V23.4136H59.8098V17.743H61.7404V19.8355H62.4314L63.7829 17.743H65.8253L63.9759 20.4632L65.9472 23.4136H63.6711L62.3908 21.3944Z" fill="#002D6E"/>
<path d="M68.7338 17.649C69.6483 17.649 70.346 17.8652 70.827 18.2976C71.3079 18.7231 71.5485 19.3788 71.5485 20.2646V23.4138H69.7499V22.6814C69.4721 23.2324 68.9302 23.508 68.1241 23.508C67.6973 23.508 67.3281 23.4312 67.0165 23.2778C66.7048 23.1244 66.4678 22.9185 66.3052 22.6605C66.1493 22.3954 66.0715 22.0955 66.0715 21.7607C66.0715 21.2236 66.2713 20.8086 66.671 20.5157C67.0706 20.2158 67.6871 20.0658 68.5204 20.0658H69.6178C69.5839 19.4659 69.1944 19.166 68.4492 19.166C68.185 19.166 67.9174 19.2114 67.6465 19.302C67.3755 19.3857 67.1452 19.5044 66.9555 19.6578L66.3052 18.3081C66.61 18.0989 66.9792 17.9384 67.4128 17.8268C67.853 17.7082 68.2934 17.649 68.7338 17.649ZM68.6626 22.2525C68.8862 22.2525 69.0826 22.1966 69.252 22.0851C69.4213 21.9735 69.5433 21.8095 69.6178 21.5933V21.1016H68.7846C68.2223 21.1016 67.9412 21.2934 67.9412 21.677C67.9412 21.8514 68.0055 21.9909 68.1342 22.0955C68.2629 22.2002 68.4391 22.2525 68.6626 22.2525Z" fill="#002D6E"/>
<path d="M33.2466 26.5523H36.61C37.389 26.5523 38.08 26.7023 38.6829 27.0022C39.2859 27.3021 39.7533 27.7276 40.0852 28.2786C40.4171 28.8296 40.5831 29.4748 40.5831 30.2142C40.5831 30.9535 40.4171 31.5987 40.0852 32.1497C39.7533 32.7007 39.2859 33.1263 38.6829 33.4261C38.08 33.726 37.389 33.876 36.61 33.876H33.2466V26.5523ZM36.5287 32.223C37.1384 32.223 37.6262 32.0451 37.992 31.6894C38.3645 31.3336 38.5508 30.8419 38.5508 30.2142C38.5508 29.5864 38.3645 29.0947 37.992 28.739C37.6262 28.3832 37.1384 28.2054 36.5287 28.2054H35.2585V32.223H36.5287Z" fill="#002D6E"/>
<path d="M41.5502 28.2052H43.4809V33.8759H41.5502V28.2052ZM42.5156 27.5775C42.1633 27.5775 41.8788 27.4764 41.662 27.2741C41.4452 27.0718 41.3369 26.8207 41.3369 26.5208C41.3369 26.2209 41.4452 25.9698 41.662 25.7675C41.8788 25.5652 42.1633 25.4641 42.5156 25.4641C42.8678 25.4641 43.1523 25.5617 43.3691 25.757C43.5859 25.9453 43.6943 26.1895 43.6943 26.4894C43.6943 26.8032 43.5859 27.0648 43.3691 27.2741C43.1523 27.4764 42.8678 27.5775 42.5156 27.5775Z" fill="#002D6E"/>
<path d="M50.6596 28.2053V32.8402C50.6596 33.8934 50.3819 34.6816 49.8264 35.2047C49.2709 35.7348 48.4716 35.9999 47.4283 35.9999C46.8864 35.9999 46.3783 35.9371 45.9041 35.8115C45.4299 35.686 45.0269 35.5012 44.6949 35.257L45.396 33.8655C45.6195 34.0538 45.9007 34.2003 46.2394 34.3049C46.5849 34.4165 46.9236 34.4723 47.2555 34.4723C47.7636 34.4723 48.1363 34.3573 48.3733 34.1271C48.6104 33.8969 48.7289 33.5552 48.7289 33.1018V32.9134C48.3564 33.3598 47.8111 33.583 47.093 33.583C46.6052 33.583 46.1548 33.4715 45.7415 33.2482C45.3283 33.0181 44.9997 32.6972 44.7558 32.2857C44.512 31.8672 44.39 31.3859 44.39 30.8419C44.39 30.3047 44.512 29.8305 44.7558 29.419C44.9997 29.0005 45.3283 28.6796 45.7415 28.4564C46.1548 28.2262 46.6052 28.1111 47.093 28.1111C47.8788 28.1111 48.4546 28.3727 48.8204 28.8958V28.2053H50.6596ZM47.5502 32.0032C47.8957 32.0032 48.1802 31.895 48.4038 31.6789C48.6342 31.4627 48.7493 31.1836 48.7493 30.8419C48.7493 30.5001 48.6375 30.2246 48.4139 30.0153C48.1904 29.7991 47.9025 29.691 47.5502 29.691C47.198 29.691 46.9067 29.7991 46.6763 30.0153C46.4528 30.2246 46.341 30.5001 46.341 30.8419C46.341 31.1836 46.4562 31.4627 46.6865 31.6789C46.9169 31.895 47.2047 32.0032 47.5502 32.0032Z" fill="#002D6E"/>
<path d="M51.9002 28.2052H53.8308V33.8759H51.9002V28.2052ZM52.8655 27.5775C52.5133 27.5775 52.2287 27.4764 52.0119 27.2741C51.7951 27.0718 51.6868 26.8207 51.6868 26.5208C51.6868 26.2209 51.7951 25.9698 52.0119 25.7675C52.2287 25.5652 52.5133 25.4641 52.8655 25.4641C53.2177 25.4641 53.5022 25.5617 53.719 25.757C53.9359 25.9453 54.0442 26.1895 54.0442 26.4894C54.0442 26.8032 53.9359 27.0648 53.719 27.2741C53.5022 27.4764 53.2177 27.5775 52.8655 27.5775Z" fill="#002D6E"/>
<path d="M58.8859 33.646C58.7233 33.7506 58.5235 33.8308 58.2863 33.8866C58.056 33.9425 57.8087 33.9703 57.5445 33.9703C56.8265 33.9703 56.2744 33.789 55.8882 33.4263C55.5021 33.0636 55.309 32.523 55.309 31.8046V29.9004H54.5063V28.4148H55.309V26.9395H57.2397V28.4148H58.4997V29.9004H57.2397V31.7837C57.2397 31.986 57.2905 32.1463 57.3921 32.265C57.5006 32.3765 57.6428 32.4324 57.8189 32.4324C58.0425 32.4324 58.2389 32.3731 58.4083 32.2545L58.8859 33.646Z" fill="#002D6E"/>
<path d="M61.9777 28.1111C62.8922 28.1111 63.59 28.3273 64.071 28.7598C64.5519 29.1853 64.7924 29.841 64.7924 30.7268V33.876H62.9939V33.1436C62.7161 33.6946 62.1741 33.9701 61.368 33.9701C60.9413 33.9701 60.572 33.8934 60.2604 33.74C59.9488 33.5865 59.7117 33.3807 59.5491 33.1227C59.3933 32.8576 59.3154 32.5577 59.3154 32.2229C59.3154 31.6858 59.5152 31.2708 59.915 30.9779C60.3146 30.678 60.9311 30.528 61.7643 30.528H62.8618C62.8279 29.9281 62.4383 29.6282 61.6932 29.6282C61.429 29.6282 61.1614 29.6736 60.8905 29.7642C60.6194 29.8479 60.3891 29.9665 60.1995 30.1199L59.5491 28.7703C59.854 28.561 60.2231 28.4006 60.6567 28.289C61.097 28.1704 61.5374 28.1111 61.9777 28.1111ZM61.9066 32.7146C62.1301 32.7146 62.3265 32.6588 62.496 32.5472C62.6653 32.4357 62.7872 32.2717 62.8618 32.0555V31.5638H62.0285C61.4662 31.5638 61.1851 31.7556 61.1851 32.1392C61.1851 32.3135 61.2494 32.4531 61.3782 32.5577C61.5069 32.6623 61.683 32.7146 61.9066 32.7146Z" fill="#002D6E"/>
<path d="M66.011 26.1128H67.9417V33.876H66.011V26.1128Z" fill="#002D6E"/>
</svg>
